<svg version="1.1" id="Layer_1" xmlns="http://www.w3.org/2000/svg" xmlns:xlink="http://www.w3.org/1999/xlink" x="0px" y="0px"
	 width="100%" viewBox="0 0 225 225" enable-background="new 0 0 225 225" xml:space="preserve">
<path fill="#FEFEFE" opacity="1.000000" stroke="none" 
	d="
M127.000000,226.000000 
	C84.666672,226.000000 42.833340,226.000000 1.000006,226.000000 
	C1.000004,151.000000 1.000004,76.000015 1.000002,1.000016 
	C75.999992,1.000010 150.999985,1.000010 225.999969,1.000005 
	C225.999985,75.999985 225.999985,150.999969 226.000000,225.999969 
	C193.166672,226.000000 160.333328,226.000000 127.000000,226.000000 
M192.027771,181.105942 
	C192.032654,158.164963 192.062775,135.223953 192.035233,112.283005 
	C192.008286,89.845566 191.922546,67.408195 191.927933,44.437630 
	C191.627167,44.325699 191.326385,44.213768 190.100494,43.920601 
	C148.366608,43.915073 106.632706,43.897549 64.898827,43.913254 
	C55.593620,43.916756 46.288456,44.037048 36.099731,44.269184 
	C35.981953,44.913769 35.761314,45.558315 35.761070,46.202942 
	C35.744305,90.728958 35.736473,135.255005 35.796928,179.780930 
	C35.798374,180.848251 36.579216,181.914505 37.912251,183.198578 
	C87.787590,183.206665 137.662933,183.216385 187.538269,183.212814 
	C188.693542,183.212723 189.848831,183.062988 191.566574,183.037918 
	C191.665298,182.703552 191.764023,182.369202 192.027771,181.105942 
z"/>
<path fill="#1F1F1F" opacity="1.000000" stroke="none" 
	d="
M191.862610,44.970795 
	C191.922546,67.408195 192.008286,89.845566 192.035233,112.283005 
	C192.062775,135.223953 192.032654,158.164963 191.739624,181.662567 
	C191.206146,182.417450 191.057022,182.672073 191.004105,182.983063 
	C189.848831,183.062988 188.693542,183.212723 187.538269,183.212814 
	C137.662933,183.216385 87.787590,183.206665 37.465347,182.622559 
	C37.006718,136.065552 36.994991,90.084564 36.983269,44.103565 
	C46.288456,44.037048 55.593620,43.916756 64.898827,43.913254 
	C106.632706,43.897549 148.366608,43.915073 190.633682,44.212929 
	C191.335007,44.755722 191.566910,44.910904 191.862610,44.970795 
M40.608494,50.204899 
	C40.552681,50.302670 40.426010,50.452133 40.453178,50.489368 
	C40.579208,50.662113 40.747894,50.803738 40.987770,51.895748 
	C40.987770,93.776375 40.987770,135.656998 40.987770,177.967514 
	C43.753933,177.967514 45.722057,177.966019 47.690182,177.967743 
	C93.473373,178.007828 139.256577,178.048279 185.210281,178.392731 
	C185.464478,178.280960 185.718674,178.169189 186.543335,177.441940 
	C186.663757,176.626678 186.889206,175.811447 186.889557,174.996140 
	C186.906845,134.355377 186.909302,93.714630 186.884140,53.073883 
	C186.883377,51.820168 186.574173,50.566643 186.409042,49.315071 
	C185.157578,49.208588 184.334122,49.077400 183.510651,49.077202 
	C137.373398,49.066158 91.236145,49.057468 45.098946,49.105865 
	C43.701477,49.107334 42.304649,49.716202 40.608494,50.204899 
z"/>
<path fill="#010101" opacity="1.000000" stroke="none" 
	d="
M36.541500,44.186375 
	C36.994991,90.084564 37.006718,136.065552 37.007488,182.513916 
	C36.579216,181.914505 35.798374,180.848251 35.796928,179.780930 
	C35.736473,135.255005 35.744305,90.728958 35.761070,46.202942 
	C35.761314,45.558315 35.981953,44.913769 36.541500,44.186375 
z"/>
<path fill="#010101" opacity="1.000000" stroke="none" 
	d="
M191.895264,44.704212 
	C191.566910,44.910904 191.335007,44.755722 191.096252,44.303547 
	C191.326385,44.213768 191.627167,44.325699 191.895264,44.704212 
z"/>
<path fill="#010101" opacity="1.000000" stroke="none" 
	d="
M191.285339,183.010498 
	C191.057022,182.672073 191.206146,182.417450 191.657120,182.127014 
	C191.764023,182.369202 191.665298,182.703552 191.285339,183.010498 
z"/>
<path fill="#565656" opacity="1.000000" stroke="none" 
	d="
M185.039764,178.088669 
	C139.256577,178.048279 93.473373,178.007828 47.690182,177.967743 
	C45.722057,177.966019 43.753933,177.967514 40.987770,177.967514 
	C40.987770,135.656998 40.987770,93.776375 40.967361,51.197777 
	C40.946953,50.499809 40.907520,50.041889 40.907520,50.041885 
	C42.304649,49.716202 43.701477,49.107334 45.098946,49.105865 
	C91.236145,49.057468 137.373398,49.066158 183.510651,49.077202 
	C184.334122,49.077400 185.157578,49.208588 186.409042,49.315071 
	C186.574173,50.566643 186.883377,51.820168 186.884140,53.073883 
	C186.909302,93.714630 186.906845,134.355377 186.889557,174.996140 
	C186.889206,175.811447 186.663757,176.626678 186.024384,177.739868 
	C185.505432,178.037781 185.039764,178.088669 185.039764,178.088669 
M128.085648,160.565430 
	C128.708923,160.380249 129.332184,160.195084 130.027542,159.073654 
	C130.040741,150.926300 130.051788,142.778931 130.068207,134.631577 
	C130.074783,131.368942 130.358932,128.275909 134.425568,127.452271 
	C134.562500,127.424545 134.593903,126.875717 134.750763,126.280319 
	C133.648193,125.568367 132.476913,124.812042 131.339890,124.077835 
	C131.917084,120.755371 133.672333,116.341652 128.958496,115.767891 
	C123.361809,115.086655 126.276016,121.349442 123.623550,123.023537 
	C121.751503,124.217522 119.879456,125.411514 118.007408,126.605499 
	C120.097542,127.815018 122.187675,129.024536 124.370262,130.287552 
	C122.398773,136.928482 120.473633,138.314011 113.258835,137.793579 
	C112.505165,141.073227 113.652817,143.750702 116.881004,144.146606 
	C118.446465,144.338562 120.491081,142.324265 121.978249,140.942352 
	C123.284912,139.728195 124.116699,138.002991 125.158226,136.503494 
	C126.067253,142.389969 125.911591,147.801773 126.140106,153.197311 
	C126.238289,155.515274 127.134010,157.799438 128.085648,160.565430 
M92.641571,82.318024 
	C94.776627,85.412857 97.245171,88.540459 101.411606,87.562943 
	C105.896530,86.510712 109.003853,83.326591 111.527451,78.345154 
	C109.017990,78.217369 107.276878,78.210983 105.555725,78.022377 
	C102.767021,77.716782 99.745819,77.849266 97.278275,76.762543 
	C94.730682,75.640564 89.410606,76.031845 90.512886,71.938858 
	C91.651917,67.709373 95.873840,71.131844 98.736710,71.105774 
	C100.699669,71.087898 102.662926,71.102348 104.626045,71.102348 
	C104.690033,70.255653 104.754021,69.408958 104.818008,68.562263 
	C102.501579,68.232841 100.190659,67.854797 97.866692,67.591980 
	C96.443672,67.431061 94.214493,68.014496 93.693031,67.292175 
	C90.058533,62.257710 89.113144,65.807228 87.476868,68.819992 
	C85.306671,72.815842 85.178017,75.973351 89.710793,78.342125 
	C90.347603,78.674919 90.457176,80.016594 89.910263,80.856346 
	C87.581032,80.892273 85.249977,81.005791 82.922874,80.951065 
	C71.180664,80.674911 71.037186,80.661423 71.196404,92.741402 
	C71.247215,96.596756 70.243080,99.031715 66.463287,100.389046 
	C64.997665,100.915352 63.905678,102.482147 62.643475,103.574944 
	C63.039322,104.165123 63.435165,104.755302 63.831009,105.345474 
	C66.532646,104.024971 69.845154,103.296082 71.812630,101.264557 
	C76.333138,96.596886 81.431107,98.329781 86.976707,98.275429 
	C86.976707,100.793594 86.736755,102.805305 87.068977,104.717606 
	C87.260551,105.820328 88.376625,106.762436 89.076584,107.776840 
	C90.160202,106.960587 91.573875,106.346382 92.232712,105.270103 
	C92.865501,104.236397 92.920425,102.716988 92.876213,101.423073 
	C92.655487,94.961975 92.318527,88.504837 92.641571,82.318024 
M81.721161,123.941444 
	C77.583984,126.807274 73.446815,129.673111 68.174309,133.325378 
	C73.053268,133.569885 76.443115,133.739777 81.041107,133.970200 
	C73.904953,143.180603 67.875198,150.840683 55.647709,149.021698 
	C58.469685,153.721466 61.589775,154.838440 65.493988,153.236786 
	C68.887718,151.844574 72.149338,150.130295 76.306824,148.161819 
	C76.306824,152.758438 76.306824,156.755280 76.306824,160.618805 
	C80.800056,159.668396 84.556404,158.597382 88.384872,158.165146 
	C90.777100,157.895065 94.515717,159.672913 95.451973,158.604858 
	C97.015938,156.820724 96.804832,153.490448 97.389580,150.821671 
	C97.443581,150.575165 97.847214,150.405258 98.098068,150.211014 
	C107.173515,153.754135 111.862961,152.208496 112.382271,146.907669 
	C103.945328,142.656982 95.984657,138.646271 87.650993,134.447617 
	C89.702431,131.500366 91.357903,129.121994 93.513222,126.025497 
	C89.402405,125.254990 85.977112,124.612968 81.721161,123.941444 
M145.044510,89.312576 
	C145.465927,87.042137 145.749023,84.735146 146.337280,82.508789 
	C147.602386,77.720818 145.810974,75.493423 140.832886,76.147789 
	C137.226334,76.621887 133.674042,77.793694 130.070419,77.928429 
	C126.139320,78.075409 125.373871,80.322937 125.158516,83.405701 
	C124.814667,88.327866 124.706017,93.278328 124.099182,98.167328 
	C123.291183,104.677010 125.926300,107.529503 132.506775,108.143417 
	C139.224274,108.770111 145.980301,109.801018 152.501648,111.494034 
	C159.702271,113.363403 164.545120,112.291000 168.876801,106.063210 
	C170.589935,103.600159 171.732285,100.740089 173.471558,97.416824 
	C166.276886,98.900436 160.709244,100.550941 155.037064,101.079414 
	C149.155243,101.627411 143.172195,101.045486 137.233353,101.040710 
	C133.537048,101.037743 130.361008,100.558769 131.048813,95.640732 
	C131.698700,90.993980 134.824081,92.215935 137.824081,92.686226 
	C140.560379,93.115181 143.589432,93.767860 145.044510,89.312576 
M148.072250,118.599266 
	C139.293381,109.987968 141.951523,118.106659 142.157944,122.606026 
	C140.789474,122.919083 139.422745,123.231750 137.892242,123.581886 
	C139.103775,129.889893 145.969055,124.497765 147.825897,128.853333 
	C146.299698,133.461563 135.236542,131.874374 140.735092,140.360657 
	C138.677048,141.155685 136.984375,141.809570 134.231567,142.873001 
	C139.111084,145.223419 144.992294,141.911957 146.829605,148.404099 
	C143.985245,150.416733 141.022263,152.513306 137.429733,155.055344 
	C143.422058,157.572876 145.686676,152.844513 149.627197,150.736511 
	C151.099197,152.805222 152.735138,154.638062 153.831238,156.750946 
	C155.602234,160.164825 157.520844,163.276978 161.922470,162.975159 
	C166.530930,162.659164 169.170074,159.322113 172.088379,155.967484 
	C165.284943,155.295990 159.190521,153.803635 154.619980,149.472076 
	C156.351913,147.213196 157.901413,145.192245 159.450912,143.171310 
	C158.988358,142.706985 158.525818,142.242676 158.063263,141.778351 
	C156.372177,142.613815 154.752777,143.706863 152.967438,144.203613 
	C151.527802,144.604187 149.887817,144.284760 148.336700,144.284760 
	C148.328491,143.692398 148.320267,143.100037 148.312057,142.507675 
	C150.414032,141.791473 152.515991,141.075272 154.983566,140.234497 
	C154.095932,138.932541 153.395309,137.904846 152.278900,136.267319 
	C155.604324,136.457947 158.123444,136.602356 160.642563,136.746765 
	C160.735840,136.335419 160.829117,135.924072 160.922394,135.512726 
	C158.820602,134.062485 156.718826,132.612259 154.473495,131.062973 
	C155.764023,129.988297 156.870773,129.066666 158.603912,127.623405 
	C155.648804,127.069847 153.606186,126.687218 151.563553,126.304588 
	C153.218704,124.814560 154.795059,124.380569 156.398987,124.110176 
	C158.070175,123.828445 159.767975,123.704521 161.454132,123.511589 
	C161.423523,122.837456 161.392899,122.163315 161.362289,121.489182 
	C158.959656,121.489182 156.466156,121.082825 154.177902,121.594406 
	C151.458542,122.202362 149.629807,121.859718 148.072250,118.599266 
M151.632202,70.438232 
	C151.073166,71.968292 150.618591,73.546989 149.933487,75.018356 
	C148.478455,78.143341 148.984116,80.699089 152.879898,83.822014 
	C155.159058,79.438873 157.338608,75.546410 159.201096,71.507721 
	C159.878052,70.039780 160.558701,67.315239 159.898880,66.762695 
	C158.690277,65.750572 156.495438,65.857788 154.695587,65.622734 
	C151.383606,65.190208 148.062836,64.818489 144.739990,64.477478 
	C142.245453,64.221474 139.655838,63.567554 137.267960,63.990582 
	C135.131577,64.369049 133.315353,66.524857 131.176285,66.924461 
	C127.303543,67.647919 123.283043,67.541611 119.351051,68.007896 
	C117.995552,68.168648 116.107773,68.674904 115.595116,69.630562 
	C115.158821,70.443893 116.089317,72.315567 116.865242,73.395622 
	C119.664894,77.292595 122.891258,78.131157 126.899422,74.748756 
	C134.031326,68.730324 142.302048,67.746437 151.632202,70.438232 
M83.450760,121.070045 
	C89.034096,121.070045 94.617439,121.070045 100.584961,121.070045 
	C101.335098,124.144707 102.031342,126.998482 102.727592,129.852249 
	C103.299347,129.912628 103.871101,129.973007 104.442856,130.033386 
	C105.235771,127.029884 107.202461,123.655449 106.411476,121.152496 
	C105.878677,119.466530 101.475792,118.934013 98.750969,118.049530 
	C97.844780,117.755379 96.765343,118.044678 95.778419,117.940811 
	C91.848640,117.527260 87.481506,119.317024 84.178116,115.429466 
	C83.768013,114.946838 81.813652,115.742310 80.585510,115.996880 
	C78.720398,116.383484 76.790482,117.370087 75.017441,117.133308 
	C66.432854,115.986847 62.879139,118.134148 62.171379,125.968529 
	C62.001186,127.852417 63.496296,129.886765 64.225555,131.851913 
	C65.512566,130.350098 67.725266,128.958817 67.920151,127.326614 
	C68.619659,121.467827 72.094879,120.473022 77.002243,121.002144 
	C78.808807,121.196930 80.651649,121.055305 83.450760,121.070045 
M67.458199,75.944168 
	C65.213989,76.515038 62.827980,76.781433 60.765278,77.742050 
	C58.685417,78.710670 56.892132,80.327171 55.103592,81.816315 
	C54.983036,81.916695 56.066067,84.069603 56.408382,84.019974 
	C58.551907,83.709183 60.699791,83.194717 62.733669,82.443085 
	C64.103516,81.936836 65.225548,80.391121 66.566116,80.235001 
	C74.682808,79.289742 73.967575,72.751717 74.827736,67.328918 
	C74.973145,66.412254 73.880539,64.955650 72.962959,64.359787 
	C72.508446,64.064636 71.142036,65.141426 70.204758,65.629349 
	C68.671173,66.427704 67.227058,67.663315 65.606369,67.962540 
	C63.526604,68.346535 61.255707,67.689034 59.172928,68.065468 
	C58.030888,68.271889 57.106419,69.682098 56.083843,70.549500 
	C57.332260,71.304382 58.542530,72.603012 59.837532,72.693871 
	C62.097439,72.852417 64.414291,72.016029 66.698463,72.059555 
	C69.389999,72.110863 69.663826,73.658653 67.458199,75.944168 
z"/>
<path fill="#151515" opacity="1.000000" stroke="none" 
	d="
M40.758007,50.123394 
	C40.907520,50.041889 40.946953,50.499809 40.924133,50.728157 
	C40.747894,50.803738 40.579208,50.662113 40.453178,50.489368 
	C40.426010,50.452133 40.552681,50.302670 40.758007,50.123394 
z"/>
<path fill="#151515" opacity="1.000000" stroke="none" 
	d="
M185.125031,178.240692 
	C185.039764,178.088669 185.505432,178.037781 185.739151,178.047607 
	C185.718674,178.169189 185.464478,178.280960 185.125031,178.240692 
z"/>
<path fill="#202020" opacity="1.000000" stroke="none" 
	d="
M82.136490,123.956192 
	C85.977112,124.612968 89.402405,125.254990 93.513222,126.025497 
	C91.357903,129.121994 89.702431,131.500366 87.650993,134.447617 
	C95.984657,138.646271 103.945328,142.656982 112.382271,146.907669 
	C111.862961,152.208496 107.173515,153.754135 98.093285,150.205399 
	C97.847214,150.405258 97.443581,150.575165 97.389580,150.821671 
	C96.804832,153.490448 97.015938,156.820724 95.451973,158.604858 
	C94.515717,159.672913 90.777100,157.895065 88.384872,158.165146 
	C84.556404,158.597382 80.800056,159.668396 76.306824,160.618805 
	C76.306824,156.755280 76.306824,152.758438 76.306824,148.161819 
	C72.149338,150.130295 68.887718,151.844574 65.493988,153.236786 
	C61.589775,154.838440 58.469685,153.721466 55.647709,149.021698 
	C67.875198,150.840683 73.904953,143.180603 81.041107,133.970200 
	C76.443115,133.739777 73.053268,133.569885 68.174309,133.325378 
	C73.446815,129.673111 77.583984,126.807274 82.136490,123.956192 
M88.372810,148.053818 
	C85.956451,148.432159 83.469284,148.583542 81.159668,149.304077 
	C80.274475,149.580231 79.794731,151.156006 79.130241,152.139587 
	C80.075584,152.757767 81.013596,153.877533 81.967781,153.891510 
	C84.065758,153.922211 86.197990,153.509476 88.263222,153.043015 
	C89.226479,152.825439 90.871643,151.936935 90.814499,151.568817 
	C90.627045,150.361023 89.800987,149.252335 88.372810,148.053818 
M88.657448,144.064209 
	C89.160896,143.667786 89.664352,143.271362 90.167809,142.874954 
	C88.321518,141.283432 86.671654,139.005661 84.544121,138.396667 
	C83.516403,138.102493 81.590576,140.945862 80.071404,142.368607 
	C80.278412,142.779785 80.485413,143.190964 80.692421,143.602142 
	C83.091492,143.759003 85.490555,143.915848 88.657448,144.064209 
z"/>
<path fill="#202020" opacity="1.000000" stroke="none" 
	d="
M145.014206,89.730736 
	C143.589432,93.767860 140.560379,93.115181 137.824081,92.686226 
	C134.824081,92.215935 131.698700,90.993980 131.048813,95.640732 
	C130.361008,100.558769 133.537048,101.037743 137.233353,101.040710 
	C143.172195,101.045486 149.155243,101.627411 155.037064,101.079414 
	C160.709244,100.550941 166.276886,98.900436 173.471558,97.416824 
	C171.732285,100.740089 170.589935,103.600159 168.876801,106.063210 
	C164.545120,112.291000 159.702271,113.363403 152.501648,111.494034 
	C145.980301,109.801018 139.224274,108.770111 132.506775,108.143417 
	C125.926300,107.529503 123.291183,104.677010 124.099182,98.167328 
	C124.706017,93.278328 124.814667,88.327866 125.158516,83.405701 
	C125.373871,80.322937 126.139320,78.075409 130.070419,77.928429 
	C133.674042,77.793694 137.226334,76.621887 140.832886,76.147789 
	C145.810974,75.493423 147.602386,77.720818 146.337280,82.508789 
	C145.749023,84.735146 145.465927,87.042137 145.014206,89.730736 
M133.194656,82.540985 
	C132.764328,84.187904 132.334000,85.834816 131.755356,88.049316 
	C133.526947,87.775581 134.260162,87.858452 134.750092,87.552177 
	C136.739151,86.308754 138.653519,84.945854 140.595444,83.627007 
	C138.383209,83.156273 136.170990,82.685532 133.194656,82.540985 
z"/>
<path fill="#202020" opacity="1.000000" stroke="none" 
	d="
M148.306946,118.892136 
	C149.629807,121.859718 151.458542,122.202362 154.177902,121.594406 
	C156.466156,121.082825 158.959656,121.489182 161.362289,121.489182 
	C161.392899,122.163315 161.423523,122.837456 161.454132,123.511589 
	C159.767975,123.704521 158.070175,123.828445 156.398987,124.110176 
	C154.795059,124.380569 153.218704,124.814560 151.563553,126.304588 
	C153.606186,126.687218 155.648804,127.069847 158.603912,127.623405 
	C156.870773,129.066666 155.764023,129.988297 154.473495,131.062973 
	C156.718826,132.612259 158.820602,134.062485 160.922394,135.512726 
	C160.829117,135.924072 160.735840,136.335419 160.642563,136.746765 
	C158.123444,136.602356 155.604324,136.457947 152.278900,136.267319 
	C153.395309,137.904846 154.095932,138.932541 154.983566,140.234497 
	C152.515991,141.075272 150.414032,141.791473 148.312057,142.507675 
	C148.320267,143.100037 148.328491,143.692398 148.336700,144.284760 
	C149.887817,144.284760 151.527802,144.604187 152.967438,144.203613 
	C154.752777,143.706863 156.372177,142.613815 158.063263,141.778351 
	C158.525818,142.242676 158.988358,142.706985 159.450912,143.171310 
	C157.901413,145.192245 156.351913,147.213196 154.619980,149.472076 
	C159.190521,153.803635 165.284943,155.295990 172.088379,155.967484 
	C169.170074,159.322113 166.530930,162.659164 161.922470,162.975159 
	C157.520844,163.276978 155.602234,160.164825 153.831238,156.750946 
	C152.735138,154.638062 151.099197,152.805222 149.627197,150.736511 
	C145.686676,152.844513 143.422058,157.572876 137.429733,155.055344 
	C141.022263,152.513306 143.985245,150.416733 146.829605,148.404099 
	C144.992294,141.911957 139.111084,145.223419 134.231567,142.873001 
	C136.984375,141.809570 138.677048,141.155685 140.735092,140.360657 
	C135.236542,131.874374 146.299698,133.461563 147.825897,128.853333 
	C145.969055,124.497765 139.103775,129.889893 137.892242,123.581886 
	C139.422745,123.231750 140.789474,122.919083 142.157944,122.606026 
	C141.951523,118.106659 139.293381,109.987968 148.306946,118.892136 
M145.855179,137.762650 
	C148.023972,136.544769 150.192780,135.326889 152.361572,134.109009 
	C152.233536,133.572845 152.105499,133.036697 151.977478,132.500534 
	C149.904358,132.979538 147.740585,133.247375 145.816498,134.073471 
	C145.278549,134.304443 145.447540,136.181976 145.855179,137.762650 
z"/>
<path fill="#202020" opacity="1.000000" stroke="none" 
	d="
M92.022461,82.046310 
	C92.318527,88.504837 92.655487,94.961975 92.876213,101.423073 
	C92.920425,102.716988 92.865501,104.236397 92.232712,105.270103 
	C91.573875,106.346382 90.160202,106.960587 89.076584,107.776840 
	C88.376625,106.762436 87.260551,105.820328 87.068977,104.717606 
	C86.736755,102.805305 86.976707,100.793594 86.976707,98.275429 
	C81.431107,98.329781 76.333138,96.596886 71.812630,101.264557 
	C69.845154,103.296082 66.532646,104.024971 63.831009,105.345474 
	C63.435165,104.755302 63.039322,104.165123 62.643475,103.574944 
	C63.905678,102.482147 64.997665,100.915352 66.463287,100.389046 
	C70.243080,99.031715 71.247215,96.596756 71.196404,92.741402 
	C71.037186,80.661423 71.180664,80.674911 82.922874,80.951065 
	C85.249977,81.005791 87.581032,80.892273 90.619705,81.004730 
	C91.560249,81.450844 91.791359,81.748581 92.022461,82.046310 
M76.879463,83.978882 
	C76.374962,84.649452 75.870468,85.320015 75.365967,85.990585 
	C78.479279,86.638206 81.583473,87.657127 84.710800,87.733940 
	C85.819595,87.761177 86.984726,85.494347 88.652748,83.709015 
	C86.763634,83.321991 86.125702,83.040115 85.516670,83.092743 
	C82.907425,83.318214 80.306686,83.642212 76.879463,83.978882 
M83.601227,94.884659 
	C84.695557,94.428307 85.842461,94.057274 86.839462,93.442947 
	C87.036606,93.321472 86.858482,92.102379 86.508217,91.667549 
	C85.151062,89.982758 77.720963,91.013962 76.105171,93.305458 
	C78.413246,93.811119 80.591209,94.288284 83.601227,94.884659 
z"/>
<path fill="#202020" opacity="1.000000" stroke="none" 
	d="
M151.385391,70.128357 
	C142.302048,67.746437 134.031326,68.730324 126.899422,74.748756 
	C122.891258,78.131157 119.664894,77.292595 116.865242,73.395622 
	C116.089317,72.315567 115.158821,70.443893 115.595116,69.630562 
	C116.107773,68.674904 117.995552,68.168648 119.351051,68.007896 
	C123.283043,67.541611 127.303543,67.647919 131.176285,66.924461 
	C133.315353,66.524857 135.131577,64.369049 137.267960,63.990582 
	C139.655838,63.567554 142.245453,64.221474 144.739990,64.477478 
	C148.062836,64.818489 151.383606,65.190208 154.695587,65.622734 
	C156.495438,65.857788 158.690277,65.750572 159.898880,66.762695 
	C160.558701,67.315239 159.878052,70.039780 159.201096,71.507721 
	C157.338608,75.546410 155.159058,79.438873 152.879898,83.822014 
	C148.984116,80.699089 148.478455,78.143341 149.933487,75.018356 
	C150.618591,73.546989 151.073166,71.968292 151.385391,70.128357 
z"/>
<path fill="#202020" opacity="1.000000" stroke="none" 
	d="
M127.667381,160.098969 
	C127.134010,157.799438 126.238289,155.515274 126.140106,153.197311 
	C125.911591,147.801773 126.067253,142.389969 125.158226,136.503494 
	C124.116699,138.002991 123.284912,139.728195 121.978249,140.942352 
	C120.491081,142.324265 118.446465,144.338562 116.881004,144.146606 
	C113.652817,143.750702 112.505165,141.073227 113.258835,137.793579 
	C120.473633,138.314011 122.398773,136.928482 124.370262,130.287552 
	C122.187675,129.024536 120.097542,127.815018 118.007408,126.605499 
	C119.879456,125.411514 121.751503,124.217522 123.623550,123.023537 
	C126.276016,121.349442 123.361809,115.086655 128.958496,115.767891 
	C133.672333,116.341652 131.917084,120.755371 131.339890,124.077835 
	C132.476913,124.812042 133.648193,125.568367 134.750763,126.280319 
	C134.593903,126.875717 134.562500,127.424545 134.425568,127.452271 
	C130.358932,128.275909 130.074783,131.368942 130.068207,134.631577 
	C130.051788,142.778931 130.040741,150.926300 129.611786,159.541428 
	C128.686462,160.039124 128.176926,160.069046 127.667381,160.098969 
z"/>
<path fill="#202020" opacity="1.000000" stroke="none" 
	d="
M82.964355,121.068581 
	C80.651649,121.055305 78.808807,121.196930 77.002243,121.002144 
	C72.094879,120.473022 68.619659,121.467827 67.920151,127.326614 
	C67.725266,128.958817 65.512566,130.350098 64.225555,131.851913 
	C63.496296,129.886765 62.001186,127.852417 62.171379,125.968529 
	C62.879139,118.134148 66.432854,115.986847 75.017441,117.133308 
	C76.790482,117.370087 78.720398,116.383484 80.585510,115.996880 
	C81.813652,115.742310 83.768013,114.946838 84.178116,115.429466 
	C87.481506,119.317024 91.848640,117.527260 95.778419,117.940811 
	C96.765343,118.044678 97.844780,117.755379 98.750969,118.049530 
	C101.475792,118.934013 105.878677,119.466530 106.411476,121.152496 
	C107.202461,123.655449 105.235771,127.029884 104.442856,130.033386 
	C103.871101,129.973007 103.299347,129.912628 102.727592,129.852249 
	C102.031342,126.998482 101.335098,124.144707 100.584961,121.070045 
	C94.617439,121.070045 89.034096,121.070045 82.964355,121.068581 
z"/>
<path fill="#212121" opacity="1.000000" stroke="none" 
	d="
M92.332016,82.182167 
	C91.791359,81.748581 91.560249,81.450844 91.069969,81.022202 
	C90.457176,80.016594 90.347603,78.674919 89.710793,78.342125 
	C85.178017,75.973351 85.306671,72.815842 87.476868,68.819992 
	C89.113144,65.807228 90.058533,62.257710 93.693031,67.292175 
	C94.214493,68.014496 96.443672,67.431061 97.866692,67.591980 
	C100.190659,67.854797 102.501579,68.232841 104.818008,68.562263 
	C104.754021,69.408958 104.690033,70.255653 104.626045,71.102348 
	C102.662926,71.102348 100.699669,71.087898 98.736710,71.105774 
	C95.873840,71.131844 91.651917,67.709373 90.512886,71.938858 
	C89.410606,76.031845 94.730682,75.640564 97.278275,76.762543 
	C99.745819,77.849266 102.767021,77.716782 105.555725,78.022377 
	C107.276878,78.210983 109.017990,78.217369 111.527451,78.345154 
	C109.003853,83.326591 105.896530,86.510712 101.411606,87.562943 
	C97.245171,88.540459 94.776627,85.412857 92.332016,82.182167 
z"/>
<path fill="#212121" opacity="1.000000" stroke="none" 
	d="
M67.851700,75.822311 
	C69.663826,73.658653 69.389999,72.110863 66.698463,72.059555 
	C64.414291,72.016029 62.097439,72.852417 59.837532,72.693871 
	C58.542530,72.603012 57.332260,71.304382 56.083843,70.549500 
	C57.106419,69.682098 58.030888,68.271889 59.172928,68.065468 
	C61.255707,67.689034 63.526604,68.346535 65.606369,67.962540 
	C67.227058,67.663315 68.671173,66.427704 70.204758,65.629349 
	C71.142036,65.141426 72.508446,64.064636 72.962959,64.359787 
	C73.880539,64.955650 74.973145,66.412254 74.827736,67.328918 
	C73.967575,72.751717 74.682808,79.289742 66.566116,80.235001 
	C65.225548,80.391121 64.103516,81.936836 62.733669,82.443085 
	C60.699791,83.194717 58.551907,83.709183 56.408382,84.019974 
	C56.066067,84.069603 54.983036,81.916695 55.103592,81.816315 
	C56.892132,80.327171 58.685417,78.710670 60.765278,77.742050 
	C62.827980,76.781433 65.213989,76.515038 67.851700,75.822311 
z"/>
<path fill="#181818" opacity="1.000000" stroke="none" 
	d="
M127.876511,160.332184 
	C128.176926,160.069046 128.686462,160.039124 129.575745,160.009552 
	C129.332184,160.195084 128.708923,160.380249 127.876511,160.332184 
z"/>
<path fill="#525252" opacity="1.000000" stroke="none" 
	d="
M88.796585,148.079681 
	C89.800987,149.252335 90.627045,150.361023 90.814499,151.568817 
	C90.871643,151.936935 89.226479,152.825439 88.263222,153.043015 
	C86.197990,153.509476 84.065758,153.922211 81.967781,153.891510 
	C81.013596,153.877533 80.075584,152.757767 79.130234,152.139587 
	C79.794731,151.156006 80.274475,149.580231 81.159668,149.304077 
	C83.469284,148.583542 85.956451,148.432159 88.796585,148.079681 
z"/>
<path fill="#565656" opacity="1.000000" stroke="none" 
	d="
M88.273537,144.068451 
	C85.490555,143.915848 83.091492,143.759003 80.692421,143.602142 
	C80.485413,143.190964 80.278412,142.779785 80.071404,142.368607 
	C81.590576,140.945862 83.516403,138.102493 84.544121,138.396667 
	C86.671654,139.005661 88.321518,141.283432 90.167809,142.874954 
	C89.664352,143.271362 89.160896,143.667786 88.273537,144.068451 
z"/>
<path fill="#565656" opacity="1.000000" stroke="none" 
	d="
M133.576706,82.377884 
	C136.170990,82.685532 138.383209,83.156273 140.595444,83.627007 
	C138.653519,84.945854 136.739151,86.308754 134.750092,87.552177 
	C134.260162,87.858452 133.526947,87.775581 131.755356,88.049316 
	C132.334000,85.834816 132.764328,84.187904 133.576706,82.377884 
z"/>
<path fill="#525252" opacity="1.000000" stroke="none" 
	d="
M145.573700,137.533417 
	C145.447540,136.181976 145.278549,134.304443 145.816498,134.073471 
	C147.740585,133.247375 149.904358,132.979538 151.977478,132.500534 
	C152.105499,133.036697 152.233536,133.572845 152.361572,134.109009 
	C150.192780,135.326889 148.023972,136.544769 145.573700,137.533417 
z"/>
<path fill="#525252" opacity="1.000000" stroke="none" 
	d="
M77.291153,83.954590 
	C80.306686,83.642212 82.907425,83.318214 85.516670,83.092743 
	C86.125702,83.040115 86.763634,83.321991 88.652748,83.709015 
	C86.984726,85.494347 85.819595,87.761177 84.710800,87.733940 
	C81.583473,87.657127 78.479279,86.638206 75.365967,85.990585 
	C75.870468,85.320015 76.374962,84.649452 77.291153,83.954590 
z"/>
<path fill="#565656" opacity="1.000000" stroke="none" 
	d="
M83.185204,94.825058 
	C80.591209,94.288284 78.413246,93.811119 76.105171,93.305458 
	C77.720963,91.013962 85.151062,89.982758 86.508217,91.667549 
	C86.858482,92.102379 87.036606,93.321472 86.839462,93.442947 
	C85.842461,94.057274 84.695557,94.428307 83.185204,94.825058 
z"/>
</svg>